<?xml version="1.0" encoding="utf-8"?>
<!-- Generator: Adobe Illustrator 23.0.1, SVG Export Plug-In . SVG Version: 6.00 Build 0)  -->
<svg version="1.1" id="Capa_1" xmlns="http://www.w3.org/2000/svg" xmlns:xlink="http://www.w3.org/1999/xlink" x="0px" y="0px"
	 viewBox="0 0 180.8 95.6" style="enable-background:new 0 0 180.8 95.6;" xml:space="preserve">
<style type="text/css">
	.st0{fill:#9687AF;}
	.st1{fill:#FFFFFF;}
</style>
<rect x="101.8" y="-72.3" transform="matrix(0.5 -0.866 0.866 0.5 26.0449 122.9501)" class="st0" width="35.5" height="222.4"/>
<g>
	<path class="st1" d="M70,14l0.7,1.5c-0.7,0.4-1.3,0.6-2,0.6c-0.7,0-1.3-0.2-1.9-0.5c-0.7-0.4-1.2-0.9-1.5-1.5
		c-0.3-0.6-0.4-1.4-0.3-2.3c0.1-0.9,0.4-1.8,1-2.8c0.6-1.1,1.3-1.9,2.1-2.4c0.8-0.5,1.5-0.7,2.2-0.7c0.7,0,1.4,0.2,2,0.5
		c0.7,0.4,1.1,0.9,1.4,1.5c0.3,0.6,0.4,1.3,0.3,2.1l-1.5-0.1l0,0l0,0c0.1-0.6,0.1-1-0.1-1.4c-0.2-0.4-0.4-0.6-0.8-0.8
		c-0.7-0.4-1.3-0.4-2,0c-0.7,0.4-1.3,1.1-1.9,2.2c-0.4,0.6-0.6,1.3-0.8,1.9c-0.1,0.6-0.1,1.1,0,1.6c0.1,0.5,0.4,0.8,0.7,1
		C68.3,14.7,69.1,14.6,70,14z M72.5,9.7C72.5,9.7,72.5,9.8,72.5,9.7c0,0.1,0,0.2,0,0.2l-0.1,0L72.5,9.7C72.5,9.7,72.5,9.7,72.5,9.7z
		 M72.6,10C72.6,10.1,72.6,10,72.6,10c0-0.1,0-0.1,0-0.1l0,0L72.6,10z"/>
	<path class="st1" d="M74.7,19.3c-0.3-0.7-0.4-1.4-0.2-2.3c0.1-0.8,0.5-1.8,1-2.7c0.6-1,1.2-1.7,1.8-2.2c0.7-0.5,1.3-0.8,2-0.9
		c0.7-0.1,1.4,0.1,2.1,0.5c0.7,0.4,1.2,0.9,1.5,1.6c0.3,0.6,0.4,1.4,0.2,2.2c-0.1,0.8-0.5,1.7-1,2.7c-0.6,1-1.2,1.7-1.8,2.3
		c-0.7,0.5-1.4,0.9-2.1,0.9c-0.7,0.1-1.4-0.1-2.1-0.5C75.5,20.5,75,20,74.7,19.3z M78,19.7c0.4-0.1,0.8-0.4,1.3-0.9
		c0.4-0.4,0.9-1,1.3-1.7c0.4-0.6,0.6-1.2,0.8-1.8c0.1-0.6,0.2-1.1,0.1-1.5c-0.1-0.4-0.3-0.7-0.7-0.9c-0.3-0.2-0.7-0.2-1.1-0.1
		c-0.4,0.1-0.8,0.4-1.2,0.8c-0.4,0.4-0.8,0.9-1.2,1.6c-0.4,0.7-0.7,1.3-0.9,1.9c-0.2,0.6-0.2,1.1-0.1,1.6c0.1,0.4,0.3,0.7,0.7,0.9
		C77.2,19.8,77.6,19.9,78,19.7z"/>
	<path class="st1" d="M82.7,24.3l5.1-8.8l1.7,1l-0.9,5l3.8-3.3l1.7,1L89,28l-1.4-0.8l3.7-6.4l-3.1,2.6l-1-0.6l0.7-4l-3.7,6.4
		L82.7,24.3z"/>
	<path class="st1" d="M92.9,30.2l0.8-1.3l1.7,1l3.5-6.1l-1.6-0.9l0.8-1.3l4.9,2.8l-0.8,1.3l-1.7-1l-3.6,6.2l1.8,1l-0.7,1.3
		L92.9,30.2z"/>
	<path class="st1" d="M106.9,26.6l1.9,1.1l-0.8,7.9l3.6-6.3l1.5,0.9l-0.1,0.2c-0.1,0-0.1,0.1-0.2,0.1c-0.1,0.1-0.1,0.2-0.2,0.3
		l-4.7,8.1l-1.7-1l0.9-8.3l-3.8,6.6l-1.4-0.8L106.9,26.6z"/>
	<path class="st1" d="M117.1,38.3l3,1.7l-2.1,3.7c-0.6,0.1-1.2,0.1-1.7,0c-0.5-0.1-1.1-0.3-1.6-0.6c-0.7-0.4-1.3-1-1.6-1.7
		c-0.3-0.7-0.4-1.5-0.3-2.3c0.1-0.9,0.5-1.7,1-2.7c0.7-1.1,1.4-1.9,2.2-2.4c0.8-0.5,1.5-0.7,2.2-0.6c0.7,0,1.3,0.2,1.8,0.5
		c0.6,0.3,1,0.8,1.3,1.4c0.3,0.6,0.5,1.2,0.4,1.9l-1.6,0.4l0,0c0-0.1,0-0.2,0-0.5c0-0.3,0-0.5,0-0.7c0-0.2-0.1-0.4-0.2-0.6
		c-0.1-0.2-0.3-0.4-0.6-0.6c-0.3-0.2-0.7-0.3-1.1-0.2c-0.4,0-0.8,0.3-1.3,0.6c-0.5,0.4-0.9,0.9-1.3,1.7c-0.4,0.7-0.7,1.3-0.8,1.9
		c-0.1,0.6-0.1,1.1,0,1.6c0.1,0.4,0.4,0.8,0.8,1c0.5,0.3,1,0.4,1.5,0.4l1-1.6l-1.5-0.9L117.1,38.3z M119.9,37.4
		C119.9,37.4,119.9,37.4,119.9,37.4c0.1,0,0.1,0.1,0.1,0.2l-0.1,0L119.9,37.4L119.9,37.4z M120.1,37.7l-0.1-0.1l0,0L120.1,37.7z"/>
	<path class="st1" d="M137.8,49.9c0,0,0.1,0.2,0.3,0.7c0.2,0.5,0.3,0.9,0.2,1.2c0,0.4-0.2,0.7-0.4,1.1c-0.3,0.5-0.6,0.8-1.1,1.1
		c-0.4,0.3-1,0.4-1.6,0.4c-0.6,0-1.3-0.2-2-0.6c-1.1-0.7-1.9-1.6-2.3-2.9l1.4-0.8l0,0l0,0c0.3,1.1,0.9,1.9,1.8,2.4
		c0.4,0.3,0.8,0.3,1.2,0.3c0.4-0.1,0.7-0.3,0.9-0.7c0.1-0.2,0.2-0.4,0.2-0.6c0-0.2-0.1-0.5-0.2-0.8c-0.2-0.3-0.4-0.7-0.7-1.1
		c-0.6-0.8-1-1.6-1.1-2.2c-0.1-0.7,0-1.3,0.3-1.8c0.2-0.4,0.6-0.7,1-1c0.4-0.2,0.9-0.3,1.5-0.3c0.5,0,1.1,0.2,1.6,0.5
		c0.6,0.3,1,0.7,1.3,1.2c0.3,0.4,0.5,1,0.7,1.6l-1.4,0.6l0,0c0,0,0,0,0,0c0-0.5-0.1-0.9-0.4-1.2c-0.2-0.4-0.6-0.6-1-0.9
		c-0.3-0.1-0.5-0.2-0.7-0.2c-0.2,0-0.4,0-0.6,0.1c-0.2,0.1-0.3,0.2-0.4,0.4c-0.1,0.2-0.2,0.4-0.2,0.6c0,0.2,0.1,0.5,0.3,0.8
		c0.2,0.3,0.4,0.7,0.8,1.3C137.6,49.6,137.8,49.9,137.8,49.9z M132.4,50C132.4,50,132.4,50,132.4,50C132.4,50,132.4,50,132.4,50
		L132.4,50L132.4,50C132.4,50.1,132.4,50,132.4,50z M132.6,50.2C132.6,50.2,132.6,50.3,132.6,50.2C132.6,50.2,132.5,50.2,132.6,50.2
		c-0.1-0.1-0.1-0.1-0.1-0.2l0.1,0L132.6,50.2L132.6,50.2z M139.2,48C139.2,48,139.2,48,139.2,48C139.2,48,139.2,48,139.2,48
		c0.1,0.1,0.1,0.1,0.1,0.2l0,0L139.2,48L139.2,48z M139.4,48.3C139.4,48.3,139.4,48.3,139.4,48.3C139.4,48.3,139.3,48.2,139.4,48.3
		l0-0.1C139.4,48.2,139.4,48.2,139.4,48.3z"/>
	<path class="st1" d="M141.6,57.9c-0.3-0.7-0.4-1.4-0.2-2.3c0.1-0.8,0.5-1.8,1-2.7c0.6-1,1.2-1.7,1.8-2.2c0.7-0.5,1.3-0.8,2-0.9
		c0.7-0.1,1.4,0.1,2.1,0.5c0.7,0.4,1.2,0.9,1.5,1.6c0.3,0.7,0.4,1.4,0.2,2.2c-0.1,0.8-0.5,1.7-1,2.7c-0.6,1-1.2,1.7-1.8,2.3
		c-0.7,0.5-1.4,0.9-2.1,0.9c-0.7,0.1-1.4-0.1-2.1-0.5C142.3,59.1,141.8,58.6,141.6,57.9z M144.9,58.3c0.4-0.1,0.8-0.4,1.3-0.9
		c0.4-0.4,0.9-1,1.3-1.7c0.4-0.6,0.6-1.2,0.8-1.8c0.1-0.6,0.2-1.1,0.1-1.5c-0.1-0.4-0.3-0.7-0.7-0.9c-0.3-0.2-0.7-0.2-1.1-0.1
		c-0.4,0.1-0.8,0.4-1.2,0.8c-0.4,0.4-0.8,0.9-1.2,1.6c-0.4,0.7-0.7,1.3-0.9,1.9c-0.2,0.6-0.2,1.1-0.1,1.6c0.1,0.4,0.3,0.7,0.7,0.9
		C144.1,58.4,144.5,58.5,144.9,58.3z"/>
	<path class="st1" d="M151.1,63.4c-0.3-0.7-0.4-1.4-0.2-2.3c0.1-0.8,0.5-1.8,1-2.7c0.6-1,1.2-1.7,1.8-2.2c0.7-0.5,1.3-0.8,2-0.9
		c0.7-0.1,1.4,0.1,2.1,0.5c0.7,0.4,1.2,0.9,1.5,1.6c0.3,0.6,0.4,1.4,0.2,2.2c-0.1,0.8-0.5,1.7-1,2.7c-0.6,1-1.2,1.7-1.8,2.3
		c-0.7,0.5-1.4,0.9-2.1,0.9c-0.7,0.1-1.4-0.1-2.1-0.5C151.9,64.6,151.4,64.1,151.1,63.4z M154.4,63.8c0.4-0.1,0.8-0.4,1.3-0.9
		c0.4-0.4,0.9-1,1.3-1.7c0.4-0.6,0.6-1.2,0.8-1.8c0.1-0.6,0.2-1.1,0.1-1.5s-0.3-0.7-0.7-0.9c-0.3-0.2-0.7-0.2-1.1-0.1
		s-0.8,0.4-1.2,0.8c-0.4,0.4-0.8,0.9-1.2,1.6c-0.4,0.7-0.7,1.3-0.9,1.9c-0.2,0.6-0.2,1.1-0.1,1.6c0.1,0.4,0.3,0.7,0.7,1
		C153.6,63.9,154,64,154.4,63.8z"/>
	<path class="st1" d="M164.2,59.7l1.9,1.1l-0.8,7.9l3.6-6.3l1.5,0.9l-0.1,0.2c-0.1,0-0.1,0.1-0.2,0.1c-0.1,0.1-0.1,0.2-0.2,0.3
		l-4.7,8.1l-1.7-1l0.9-8.3l-3.8,6.6l-1.4-0.8L164.2,59.7z"/>
</g>
</svg>
