<svg width="100" height="100" viewBox="0 0 100 100" fill="none" xmlns="http://www.w3.org/2000/svg">
<rect width="100" height="42" rx="5" fill="#9D61FF" fill-opacity="0.25"/>
<rect y="48" width="67" height="27" rx="5" fill="#9D61FF" fill-opacity="0.25"/>
<rect y="81" width="39" height="19" rx="5" fill="#9D61FF" fill-opacity="0.25"/>
<path d="M62.2934 94.2366H50.7429L48.8913 99.6507H41L52.1977 69H60.9267L72.1245 99.6507H64.145L62.2934 94.2366ZM60.3536 88.4732L56.5181 77.2521L52.7268 88.4732H60.3536Z" fill="#9D61FF"/>
<path d="M74.0336 87.4254C74.0336 84.9221 74.5038 82.7244 75.4443 80.8324C76.4142 78.9404 77.7221 77.485 79.3679 76.4662C81.0138 75.4474 82.8507 74.938 84.8786 74.938C86.6127 74.938 88.1263 75.2873 89.4194 75.9859C90.742 76.6845 91.756 77.6014 92.4614 78.7366V75.2873H100V99.6507H92.4614V96.2014C91.7266 97.3366 90.6979 98.2535 89.3754 98.9521C88.0822 99.6507 86.5686 100 84.8345 100C82.836 100 81.0138 99.4906 79.3679 98.4718C77.7221 97.4239 76.4142 95.954 75.4443 94.062C74.5038 92.1408 74.0336 89.9286 74.0336 87.4254ZM92.4614 87.469C92.4614 85.6061 91.9323 84.1362 90.8743 83.0592C89.8456 81.9822 88.5818 81.4437 87.0829 81.4437C85.584 81.4437 84.3055 81.9822 83.2475 83.0592C82.2188 84.107 81.7045 85.5624 81.7045 87.4254C81.7045 89.2883 82.2188 90.7728 83.2475 91.8789C84.3055 92.9559 85.584 93.4944 87.0829 93.4944C88.5818 93.4944 89.8456 92.9559 90.8743 91.8789C91.9323 90.8019 92.4614 89.3319 92.4614 87.469Z" fill="#9D61FF"/>
</svg>
