<svg width="197" height="47" viewBox="0 0 197 47" fill="none" xmlns="http://www.w3.org/2000/svg">
<ellipse cx="29" cy="20" rx="20" ry="19" fill="#FF64FF" fill-opacity="0.5" stroke="#FF59FF" stroke-width="0.5"/>
<g filter="url(#filter0_b)">
<path d="M3 46L41.012 46C42.8158 46 43.6979 43.8002 42.3937 42.554L4.38171 6.23142C3.10927 5.01552 1 5.91742 1 7.6774L0.999998 44C0.999998 45.1046 1.89543 46 3 46Z" fill="#7B61FF" fill-opacity="0.5"/>
<path d="M3 46L41.012 46C42.8158 46 43.6979 43.8002 42.3937 42.554L4.38171 6.23142C3.10927 5.01552 1 5.91742 1 7.6774L0.999998 44C0.999998 45.1046 1.89543 46 3 46Z" stroke="#9D61FF" stroke-width="0.5"/>
</g>
<g filter="url(#filter1_b)">
<path d="M40 16C38.8954 16 38 15.1046 38 14L38 3C38 1.89543 38.8954 1 40 1L51 1C52.1046 1 53 1.89543 53 3L53 14C53 15.1046 52.1046 16 51 16L40 16Z" fill="#FFE600" fill-opacity="0.5"/>
<path d="M40 16C38.8954 16 38 15.1046 38 14L38 3C38 1.89543 38.8954 1 40 1L51 1C52.1046 1 53 1.89543 53 3L53 14C53 15.1046 52.1046 16 51 16L40 16Z" stroke="#FFC700" stroke-width="0.5"/>
</g>
<path d="M73.2266 31.8848L73.1562 30.127C72.9062 30.4316 72.6484 30.709 72.3828 30.959C72.1172 31.209 71.832 31.4238 71.5273 31.6035C71.2227 31.7754 70.8945 31.9082 70.543 32.002C70.1992 32.1035 69.8164 32.1543 69.3945 32.1543C68.6914 32.1543 68.0664 32.0137 67.5195 31.7324C66.9727 31.4512 66.5117 31.0527 66.1367 30.5371C65.7695 30.0137 65.4883 29.3809 65.293 28.6387C65.0977 27.8965 65 27.0684 65 26.1543C65 25.0605 65.1523 24.1152 65.457 23.3184C65.7695 22.5137 66.1992 21.8496 66.7461 21.3262C67.293 20.7949 67.9414 20.4043 68.6914 20.1543C69.4414 19.8965 70.2578 19.7676 71.1406 19.7676C71.4375 19.7676 71.7344 19.7871 72.0312 19.8262C72.3359 19.8652 72.6055 19.916 72.8398 19.9785V15.3262H75.6992V31.8848H73.2266ZM68 26.0254C68 26.6816 68.043 27.2441 68.1289 27.7129C68.2227 28.1738 68.3555 28.5527 68.5273 28.8496C68.707 29.1465 68.9258 29.3652 69.1836 29.5059C69.4414 29.6387 69.7344 29.7051 70.0625 29.7051C70.5469 29.7051 71.0078 29.5098 71.4453 29.1191C71.8828 28.7285 72.3477 28.1934 72.8398 27.5137V22.3105C72.6133 22.2246 72.332 22.1543 71.9961 22.0996C71.668 22.0449 71.3359 22.0176 71 22.0176C70.5391 22.0176 70.125 22.1113 69.7578 22.2988C69.3906 22.4863 69.0742 22.752 68.8086 23.0957C68.5508 23.4395 68.3516 23.8613 68.2109 24.3613C68.0703 24.8535 68 25.4082 68 26.0254Z" fill="#9D61FF"/>
<path d="M85.9414 16.7207C85.9414 16.9785 85.8945 17.2207 85.8008 17.4473C85.707 17.6738 85.5742 17.873 85.4023 18.0449C85.2383 18.209 85.043 18.3418 84.8164 18.4434C84.5898 18.5371 84.3438 18.584 84.0781 18.584C83.8125 18.584 83.5625 18.5371 83.3281 18.4434C83.1016 18.3418 82.9023 18.209 82.7305 18.0449C82.5664 17.873 82.4375 17.6738 82.3438 17.4473C82.25 17.2207 82.2031 16.9785 82.2031 16.7207C82.2031 16.4629 82.25 16.2207 82.3438 15.9941C82.4375 15.7676 82.5664 15.5684 82.7305 15.3965C82.9023 15.2246 83.1016 15.0918 83.3281 14.998C83.5625 14.8965 83.8125 14.8457 84.0781 14.8457C84.3438 14.8457 84.5898 14.8965 84.8164 14.998C85.043 15.0918 85.2383 15.2246 85.4023 15.3965C85.5742 15.5684 85.707 15.7676 85.8008 15.9941C85.8945 16.2207 85.9414 16.4629 85.9414 16.7207ZM82.7773 22.2051H79.4141V19.9785H85.707V29.6582H89.1406V31.8848H79.0039V29.6582H82.7773V22.2051Z" fill="#9D61FF"/>
<path d="M101.949 28.3809C101.949 29.0605 101.797 29.6426 101.492 30.127C101.195 30.6035 100.797 30.9941 100.297 31.2988C99.8047 31.5957 99.2422 31.8105 98.6094 31.9434C97.9844 32.084 97.3438 32.1543 96.6875 32.1543C95.8125 32.1543 95.0234 32.1113 94.3203 32.0254C93.6172 31.9473 92.9531 31.8301 92.3281 31.6738V29.0957C93.0625 29.4004 93.793 29.623 94.5195 29.7637C95.2539 29.8965 95.9453 29.9629 96.5938 29.9629C97.3438 29.9629 97.9023 29.8457 98.2695 29.6113C98.6445 29.3691 98.832 29.0566 98.832 28.6738C98.832 28.4941 98.793 28.3301 98.7148 28.1816C98.6367 28.0332 98.4883 27.8926 98.2695 27.7598C98.0586 27.6191 97.7578 27.4785 97.3672 27.3379C96.9766 27.1895 96.4648 27.0254 95.832 26.8457C95.2461 26.6816 94.7305 26.498 94.2852 26.2949C93.8477 26.084 93.4844 25.8379 93.1953 25.5566C92.9062 25.2754 92.6875 24.9512 92.5391 24.584C92.3984 24.209 92.3281 23.7715 92.3281 23.2715C92.3281 22.7871 92.4375 22.3301 92.6562 21.9004C92.875 21.4707 93.1992 21.0957 93.6289 20.7754C94.0664 20.4473 94.6094 20.1895 95.2578 20.002C95.9062 19.8145 96.6641 19.7207 97.5312 19.7207C98.2812 19.7207 98.9453 19.7598 99.5234 19.8379C100.102 19.916 100.613 20.002 101.059 20.0957V22.4277C100.379 22.209 99.7383 22.0566 99.1367 21.9707C98.543 21.877 97.9531 21.8301 97.3672 21.8301C96.7812 21.8301 96.3086 21.9355 95.9492 22.1465C95.5977 22.3574 95.4219 22.6504 95.4219 23.0254C95.4219 23.2051 95.457 23.3652 95.5273 23.5059C95.5977 23.6465 95.7344 23.7832 95.9375 23.916C96.1484 24.0488 96.4375 24.1895 96.8047 24.3379C97.1797 24.4785 97.6719 24.6348 98.2812 24.8066C98.9688 25.002 99.5469 25.2129 100.016 25.4395C100.484 25.6582 100.859 25.9082 101.141 26.1895C101.43 26.4707 101.637 26.791 101.762 27.1504C101.887 27.5098 101.949 27.9199 101.949 28.3809Z" fill="#9D61FF"/>
<path d="M115.695 25.0176C115.695 25.2129 115.688 25.4668 115.672 25.7793C115.664 26.0918 115.648 26.3848 115.625 26.6582H107.797C107.797 27.1816 107.875 27.6426 108.031 28.041C108.195 28.4395 108.422 28.7754 108.711 29.0488C109.008 29.3145 109.359 29.5176 109.766 29.6582C110.18 29.7988 110.637 29.8691 111.137 29.8691C111.715 29.8691 112.332 29.8262 112.988 29.7402C113.652 29.6465 114.34 29.498 115.051 29.2949V31.5684C114.746 31.6543 114.414 31.7324 114.055 31.8027C113.695 31.873 113.328 31.9355 112.953 31.9902C112.578 32.0449 112.199 32.084 111.816 32.1074C111.434 32.1387 111.062 32.1543 110.703 32.1543C109.797 32.1543 108.984 32.0254 108.266 31.7676C107.547 31.5098 106.938 31.1309 106.438 30.6309C105.938 30.123 105.555 29.498 105.289 28.7559C105.023 28.0137 104.891 27.1543 104.891 26.1777C104.891 25.209 105.023 24.3301 105.289 23.541C105.555 22.7441 105.93 22.0645 106.414 21.502C106.898 20.9316 107.484 20.4941 108.172 20.1895C108.867 19.877 109.641 19.7207 110.492 19.7207C111.336 19.7207 112.082 19.8535 112.73 20.1191C113.379 20.377 113.922 20.7402 114.359 21.209C114.797 21.6777 115.129 22.2363 115.355 22.8848C115.582 23.5332 115.695 24.2441 115.695 25.0176ZM112.789 24.6074C112.797 24.1387 112.738 23.7324 112.613 23.3887C112.488 23.0371 112.316 22.748 112.098 22.5215C111.887 22.2949 111.637 22.127 111.348 22.0176C111.066 21.9082 110.762 21.8535 110.434 21.8535C109.715 21.8535 109.125 22.0957 108.664 22.5801C108.203 23.0566 107.93 23.7324 107.844 24.6074H112.789Z" fill="#9D61FF"/>
<path d="M125.621 31.8848V24.127C125.621 22.8223 125.137 22.1699 124.168 22.1699C123.684 22.1699 123.219 22.3652 122.773 22.7559C122.336 23.1465 121.871 23.6777 121.379 24.3496V31.8848H118.52V19.9785H120.992L121.062 21.7363C121.305 21.4316 121.555 21.1543 121.812 20.9043C122.078 20.6543 122.363 20.4434 122.668 20.2715C122.973 20.0918 123.301 19.9551 123.652 19.8613C124.004 19.7676 124.398 19.7207 124.836 19.7207C125.445 19.7207 125.977 19.8223 126.43 20.0254C126.883 20.2207 127.262 20.502 127.566 20.8691C127.871 21.2285 128.098 21.666 128.246 22.1816C128.402 22.6895 128.48 23.2598 128.48 23.8926V31.8848H125.621ZM127.906 16.5918C127.578 17.2246 127.195 17.6934 126.758 17.998C126.32 18.2949 125.785 18.4434 125.152 18.4434C124.691 18.4434 124.301 18.377 123.98 18.2441C123.668 18.1113 123.387 17.9629 123.137 17.7988C122.895 17.6348 122.668 17.4863 122.457 17.3535C122.246 17.2207 122.016 17.1543 121.766 17.1543C121.477 17.1543 121.223 17.2441 121.004 17.4238C120.785 17.6035 120.566 17.8652 120.348 18.209L119.07 16.9316C119.398 16.3066 119.781 15.8457 120.219 15.5488C120.656 15.2441 121.195 15.0918 121.836 15.0918C122.297 15.0918 122.684 15.1621 122.996 15.3027C123.316 15.4355 123.598 15.5801 123.84 15.7363C124.09 15.8926 124.32 16.041 124.531 16.1816C124.742 16.3145 124.973 16.3809 125.223 16.3809C125.512 16.3809 125.766 16.291 125.984 16.1113C126.203 15.9238 126.418 15.6621 126.629 15.3262L127.906 16.5918Z" fill="#9D61FF"/>
<path d="M139.18 31.8848L139.109 30.3262C138.859 30.5918 138.598 30.8379 138.324 31.0645C138.051 31.2832 137.75 31.4746 137.422 31.6387C137.094 31.8027 136.734 31.9277 136.344 32.0137C135.961 32.1074 135.539 32.1543 135.078 32.1543C134.469 32.1543 133.934 32.0645 133.473 31.8848C133.012 31.7051 132.625 31.4551 132.312 31.1348C132 30.8145 131.762 30.4277 131.598 29.9746C131.441 29.5215 131.363 29.0215 131.363 28.4746C131.363 27.9121 131.48 27.3926 131.715 26.916C131.957 26.4395 132.32 26.0293 132.805 25.6855C133.297 25.3418 133.906 25.0723 134.633 24.877C135.367 24.6816 136.227 24.584 137.211 24.584H138.77V23.8691C138.77 23.5645 138.727 23.291 138.641 23.0488C138.555 22.7988 138.414 22.5879 138.219 22.416C138.031 22.2441 137.785 22.1113 137.48 22.0176C137.176 21.9238 136.801 21.877 136.355 21.877C135.652 21.877 134.957 21.959 134.27 22.123C133.59 22.2793 132.93 22.502 132.289 22.791V20.5059C132.859 20.2793 133.516 20.0918 134.258 19.9434C135.008 19.7949 135.785 19.7207 136.59 19.7207C137.473 19.7207 138.23 19.8066 138.863 19.9785C139.496 20.1426 140.016 20.3926 140.422 20.7285C140.836 21.0645 141.141 21.4863 141.336 21.9941C141.531 22.4941 141.629 23.0801 141.629 23.752V31.8848H139.18ZM138.77 26.623H137.023C136.539 26.623 136.129 26.6699 135.793 26.7637C135.457 26.8574 135.184 26.9863 134.973 27.1504C134.762 27.3145 134.605 27.5059 134.504 27.7246C134.41 27.9355 134.363 28.1621 134.363 28.4043C134.363 28.8887 134.52 29.2598 134.832 29.5176C135.145 29.7676 135.57 29.8926 136.109 29.8926C136.508 29.8926 136.922 29.748 137.352 29.459C137.781 29.1699 138.254 28.7559 138.77 28.2168V26.623Z" fill="#9D61FF"/>
<path d="M153.312 31.8848V23.7754C153.312 23.4785 153.305 23.2207 153.289 23.002C153.273 22.7754 153.242 22.5879 153.195 22.4395C153.148 22.291 153.078 22.1816 152.984 22.1113C152.898 22.0332 152.777 21.9941 152.621 21.9941C152.379 21.9941 152.141 22.1582 151.906 22.4863C151.672 22.8145 151.406 23.373 151.109 24.1621V31.8848H148.66V23.7754C148.66 23.4785 148.652 23.2207 148.637 23.002C148.621 22.7754 148.59 22.5879 148.543 22.4395C148.496 22.291 148.426 22.1816 148.332 22.1113C148.238 22.0332 148.113 21.9941 147.957 21.9941C147.754 21.9941 147.527 22.1582 147.277 22.4863C147.027 22.8145 146.75 23.373 146.445 24.1621V31.8848H143.973V19.9785H146.094L146.141 21.7129C146.312 21.3613 146.484 21.0605 146.656 20.8105C146.828 20.5605 147.012 20.3574 147.207 20.2012C147.402 20.0371 147.609 19.9199 147.828 19.8496C148.055 19.7793 148.309 19.7441 148.59 19.7441C149.254 19.7441 149.758 19.9199 150.102 20.2715C150.453 20.6152 150.652 21.0957 150.699 21.7129C150.887 21.3613 151.07 21.0605 151.25 20.8105C151.438 20.5605 151.629 20.3574 151.824 20.2012C152.027 20.0371 152.242 19.9199 152.469 19.8496C152.703 19.7793 152.961 19.7441 153.242 19.7441C154.109 19.7441 154.75 20.0488 155.164 20.6582C155.578 21.2598 155.785 22.1543 155.785 23.3418V31.8848H153.312Z" fill="#9D61FF"/>
<path d="M168.477 25.0176C168.477 25.2129 168.469 25.4668 168.453 25.7793C168.445 26.0918 168.43 26.3848 168.406 26.6582H160.578C160.578 27.1816 160.656 27.6426 160.812 28.041C160.977 28.4395 161.203 28.7754 161.492 29.0488C161.789 29.3145 162.141 29.5176 162.547 29.6582C162.961 29.7988 163.418 29.8691 163.918 29.8691C164.496 29.8691 165.113 29.8262 165.77 29.7402C166.434 29.6465 167.121 29.498 167.832 29.2949V31.5684C167.527 31.6543 167.195 31.7324 166.836 31.8027C166.477 31.873 166.109 31.9355 165.734 31.9902C165.359 32.0449 164.98 32.084 164.598 32.1074C164.215 32.1387 163.844 32.1543 163.484 32.1543C162.578 32.1543 161.766 32.0254 161.047 31.7676C160.328 31.5098 159.719 31.1309 159.219 30.6309C158.719 30.123 158.336 29.498 158.07 28.7559C157.805 28.0137 157.672 27.1543 157.672 26.1777C157.672 25.209 157.805 24.3301 158.07 23.541C158.336 22.7441 158.711 22.0645 159.195 21.502C159.68 20.9316 160.266 20.4941 160.953 20.1895C161.648 19.877 162.422 19.7207 163.273 19.7207C164.117 19.7207 164.863 19.8535 165.512 20.1191C166.16 20.377 166.703 20.7402 167.141 21.209C167.578 21.6777 167.91 22.2363 168.137 22.8848C168.363 23.5332 168.477 24.2441 168.477 25.0176ZM165.57 24.6074C165.578 24.1387 165.52 23.7324 165.395 23.3887C165.27 23.0371 165.098 22.748 164.879 22.5215C164.668 22.2949 164.418 22.127 164.129 22.0176C163.848 21.9082 163.543 21.8535 163.215 21.8535C162.496 21.8535 161.906 22.0957 161.445 22.5801C160.984 23.0566 160.711 23.7324 160.625 24.6074H165.57Z" fill="#9D61FF"/>
<path d="M175.145 17.5527H171.781V15.3262H178.074V29.6582H181.508V31.8848H171.371V29.6582H175.145V17.5527Z" fill="#9D61FF"/>
<path d="M191.961 31.8848L191.891 30.3262C191.641 30.5918 191.379 30.8379 191.105 31.0645C190.832 31.2832 190.531 31.4746 190.203 31.6387C189.875 31.8027 189.516 31.9277 189.125 32.0137C188.742 32.1074 188.32 32.1543 187.859 32.1543C187.25 32.1543 186.715 32.0645 186.254 31.8848C185.793 31.7051 185.406 31.4551 185.094 31.1348C184.781 30.8145 184.543 30.4277 184.379 29.9746C184.223 29.5215 184.145 29.0215 184.145 28.4746C184.145 27.9121 184.262 27.3926 184.496 26.916C184.738 26.4395 185.102 26.0293 185.586 25.6855C186.078 25.3418 186.688 25.0723 187.414 24.877C188.148 24.6816 189.008 24.584 189.992 24.584H191.551V23.8691C191.551 23.5645 191.508 23.291 191.422 23.0488C191.336 22.7988 191.195 22.5879 191 22.416C190.812 22.2441 190.566 22.1113 190.262 22.0176C189.957 21.9238 189.582 21.877 189.137 21.877C188.434 21.877 187.738 21.959 187.051 22.123C186.371 22.2793 185.711 22.502 185.07 22.791V20.5059C185.641 20.2793 186.297 20.0918 187.039 19.9434C187.789 19.7949 188.566 19.7207 189.371 19.7207C190.254 19.7207 191.012 19.8066 191.645 19.9785C192.277 20.1426 192.797 20.3926 193.203 20.7285C193.617 21.0645 193.922 21.4863 194.117 21.9941C194.312 22.4941 194.41 23.0801 194.41 23.752V31.8848H191.961ZM191.551 26.623H189.805C189.32 26.623 188.91 26.6699 188.574 26.7637C188.238 26.8574 187.965 26.9863 187.754 27.1504C187.543 27.3145 187.387 27.5059 187.285 27.7246C187.191 27.9355 187.145 28.1621 187.145 28.4043C187.145 28.8887 187.301 29.2598 187.613 29.5176C187.926 29.7676 188.352 29.8926 188.891 29.8926C189.289 29.8926 189.703 29.748 190.133 29.459C190.562 29.1699 191.035 28.7559 191.551 28.2168V26.623Z" fill="#9D61FF"/>
<defs>
<filter id="filter0_b" x="-4.25" y="0.422913" width="52.5166" height="50.8271" filterUnits="userSpaceOnUse" color-interpolation-filters="sRGB">
<feFlood flood-opacity="0" result="BackgroundImageFix"/>
<feGaussianBlur in="BackgroundImage" stdDeviation="2.5"/>
<feComposite in2="SourceAlpha" operator="in" result="effect1_backgroundBlur"/>
<feBlend mode="normal" in="SourceGraphic" in2="effect1_backgroundBlur" result="shape"/>
</filter>
<filter id="filter1_b" x="32.75" y="-4.25" width="25.5" height="25.5" filterUnits="userSpaceOnUse" color-interpolation-filters="sRGB">
<feFlood flood-opacity="0" result="BackgroundImageFix"/>
<feGaussianBlur in="BackgroundImage" stdDeviation="2.5"/>
<feComposite in2="SourceAlpha" operator="in" result="effect1_backgroundBlur"/>
<feBlend mode="normal" in="SourceGraphic" in2="effect1_backgroundBlur" result="shape"/>
</filter>
</defs>
</svg>
